{
    "asset" : {
        "generator" : "Khronos glTF Blender I/O v3.3.27",
        "version" : "2.0"
    },
    "extensionsUsed" : [
        "KHR_materials_specular",
        "KHR_materials_ior"
    ],
    "scene" : 0,
    "scenes" : [
        {
            "name" : "Scene",
            "nodes" : [
                0,
                1
            ]
        }
    ],
    "nodes" : [
        {
            "mesh" : 0,
            "name" : "Shape_44_",
            "rotation" : [
                0.7071068286895752,
                0,
                0,
                0.7071068286895752
            ],
            "scale" : [
                35.16117477416992,
                15.642993927001953,
                35.16117477416992
            ],
            "translation" : [
                1.4388856887817383,
                1.7504833936691284,
                -0.13537538051605225
            ]
        },
        {
            "mesh" : 1,
            "name" : "Dot_1_",
            "rotation" : [
                0.7071068286895752,
                0,
                0,
                0.7071068286895752
            ],
            "scale" : [
                35.16117477416992,
                15.642993927001953,
                35.16117477416992
            ],
            "translation" : [
                1.4388856887817383,
                1.7504833936691284,
                -0.09215819835662842
            ]
        }
    ],
    "materials" : [
        {
            "doubleSided" : true,
            "extensions" : {
                "KHR_materials_specular" : {
                    "specularColorFactor" : [
                        0,
                        0,
                        0
                    ]
                },
                "KHR_materials_ior" : {
                    "ior" : 1.4500000476837158
                }
            },
            "name" : "Material.001",
            "pbrMetallicRoughness" : {
                "baseColorFactor" : [
                    0.8140406012535095,
                    0.05315447598695755,
                    0.058056555688381195,
                    1
                ],
                "metallicFactor" : 0,
                "roughnessFactor" : 0.5
            }
        },
        {
            "doubleSided" : true,
            "extensions" : {
                "KHR_materials_specular" : {
                    "specularColorFactor" : [
                        0,
                        0,
                        0
                    ]
                },
                "KHR_materials_ior" : {
                    "ior" : 1.4500000476837158
                }
            },
            "name" : "Material.002",
            "pbrMetallicRoughness" : {
                "baseColorFactor" : [
                    0.7843610644340515,
                    1,
                    0.913000762462616,
                    1
                ],
                "metallicFactor" : 0,
                "roughnessFactor" : 0.5
            }
        }
    ],
    "meshes" : [
        {
            "name" : "Shape_44_",
            "primitives" : [
                {
                    "attributes" : {
                        "POSITION" : 0,
                        "NORMAL" : 1,
                        "TEXCOORD_0" : 2
                    },
                    "indices" : 3,
                    "material" : 0
                }
            ]
        },
        {
            "name" : "Dot_1_",
            "primitives" : [
                {
                    "attributes" : {
                        "POSITION" : 4,
                        "NORMAL" : 5,
                        "TEXCOORD_0" : 6
                    },
                    "indices" : 7,
                    "material" : 1
                }
            ]
        }
    ],
    "accessors" : [
        {
            "bufferView" : 0,
            "componentType" : 5126,
            "count" : 879,
            "max" : [
                -0.011960536241531372,
                0.009999990463256836,
                0.036027248948812485
            ],
            "min" : [
                -0.042271822690963745,
                -0.010000009089708328,
                -0.008675280958414078
            ],
            "type" : "VEC3"
        },
        {
            "bufferView" : 1,
            "componentType" : 5126,
            "count" : 879,
            "type" : "VEC3"
        },
        {
            "bufferView" : 2,
            "componentType" : 5126,
            "count" : 879,
            "type" : "VEC2"
        },
        {
            "bufferView" : 3,
            "componentType" : 5123,
            "count" : 1572,
            "type" : "SCALAR"
        },
        {
            "bufferView" : 4,
            "componentType" : 5126,
            "count" : 349,
            "max" : [
                -0.019919365644454956,
                0.009999990463256836,
                0.01468825712800026
            ],
            "min" : [
                -0.03431299328804016,
                -0.010000009089708328,
                0.00029766932129859924
            ],
            "type" : "VEC3"
        },
        {
            "bufferView" : 5,
            "componentType" : 5126,
            "count" : 349,
            "type" : "VEC3"
        },
        {
            "bufferView" : 6,
            "componentType" : 5126,
            "count" : 349,
            "type" : "VEC2"
        },
        {
            "bufferView" : 7,
            "componentType" : 5123,
            "count" : 564,
            "type" : "SCALAR"
        }
    ],
    "bufferViews" : [
        {
            "buffer" : 0,
            "byteLength" : 10548,
            "byteOffset" : 0,
            "target" : 34962
        },
        {
            "buffer" : 0,
            "byteLength" : 10548,
            "byteOffset" : 10548,
            "target" : 34962
        },
        {
            "buffer" : 0,
            "byteLength" : 7032,
            "byteOffset" : 21096,
            "target" : 34962
        },
        {
            "buffer" : 0,
            "byteLength" : 3144,
            "byteOffset" : 28128,
            "target" : 34963
        },
        {
            "buffer" : 0,
            "byteLength" : 4188,
            "byteOffset" : 31272,
            "target" : 34962
        },
        {
            "buffer" : 0,
            "byteLength" : 4188,
            "byteOffset" : 35460,
            "target" : 34962
        },
        {
            "buffer" : 0,
            "byteLength" : 2792,
            "byteOffset" : 39648,
            "target" : 34962
        },
        {
            "buffer" : 0,
            "byteLength" : 1128,
            "byteOffset" : 42440,
            "target" : 34963
        }
    ],
    "buffers" : [
        {
            "byteLength" : 43568,
            "uri" : "location.bin"
        }
    ]
}
